<?xml version="1.0" encoding="utf-8"?>
<!-- Generator: Adobe Illustrator 19.0.0, SVG Export Plug-In . SVG Version: 6.00 Build 0)  -->
<svg version="1.1" xmlns="http://www.w3.org/2000/svg" xmlns:xlink="http://www.w3.org/1999/xlink" x="0px" y="0px"
	 viewBox="0 0 3000 3000" style="enable-background:new 0 0 3000 3000;" xml:space="preserve">
<style type="text/css">
	.st0{display:none;}
	.st1{display:inline;}
	.st2{fill:#19C6F4;}
	.st3{fill:url(#XMLID_28_);}
</style>
<g id="Layer_2" class="st0">
	<g id="XMLID_2_" class="st1">
		<path id="XMLID_9_" class="st2" d="M1749.4,2284.4c-234.1,185.6-497,177.2-664.6,143.2c-28.7-5.8-42.9,33.7-16.9,47.3
			c360.5,188.8,594.3,5.2,717.5-155.2C1803.7,2295.9,1772.9,2265.7,1749.4,2284.4z"/>
		<path id="XMLID_15_" class="st2" d="M1499.2,14.8C678.9,14.8,14,679.8,14,1500s664.9,1485.2,1485.2,1485.2
			S2984.3,2320.2,2984.3,1500S2319.4,14.8,1499.2,14.8z M1396.5,2777.4c-247.3,13-534.2-163.1-634.3-389.7
			c-173.6-392.6,54.1-825.4,451-920.2c108.6-25.9,217.3-23.6,318.4,2.3c18.6,4.7,35.5-11.8,31.1-30.5L1293.5,312.7
			c-20.4-85.3,32.2-171,117.6-191.4l0,0c85.3-20.4,171,32.2,191.4,117.6L2005.1,1924c0.8,3.5,1.5,7,2.1,10.5
			c0.1,0.8,0.3,1.5,0.5,2.3c2,7.4,4,14.8,5.7,22.3C2108.3,2356,1825.2,2754.8,1396.5,2777.4z M2260.8,1023.1l-372.2-147
			c-29.8-11.8-52-37.4-59.5-68.5l-61.6-258c-22.6-94.7,91.4-161.1,162.6-94.6l433.8,405C2443.3,933.9,2361.7,1062.9,2260.8,1023.1z"
			/>
	</g>
</g>
<g id="Layer_3">
	<linearGradient id="XMLID_28_" gradientUnits="userSpaceOnUse" x1="1500.5" y1="13.0532" x2="1500.5" y2="2986.0532">
		<stop  offset="0" style="stop-color:#19C6F4"/>
		<stop  offset="1" style="stop-color:#1977F4"/>
	</linearGradient>
	<path id="XMLID_1_" class="st3" d="M1787,2320c-123.3,160.5-357.3,344.4-718.1,155.4c-26-13.6-11.8-53.2,16.9-47.4
		c167.8,34,430.9,42.4,665.2-143.4C1774.5,2265.9,1805.2,2296.1,1787,2320z M2987,1499.6c0,821-665.5,1486.5-1486.5,1486.5
		S14,2320.5,14,1499.6S679.5,13.1,1500.5,13.1S2987,678.6,2987,1499.6z M2015.3,1959.1c-1.8-7.5-3.7-15-5.8-22.4
		c-0.2-0.7-0.4-1.5-0.5-2.3c-0.6-3.5-1.3-7-2.1-10.5l-403-1686.6c-20.4-85.4-106.2-138.1-191.5-117.7l0,0
		c-85.4,20.4-138.1,106.2-117.7,191.5l269.4,1127.6c4.5,18.7-12.5,35.2-31.1,30.5c-101.2-25.9-210-28.2-318.7-2.3
		C817,1562,589.1,1995.1,762.8,2388.1c100.3,226.7,387.4,403.1,634.9,390C1826.8,2755.5,2110.2,2356.3,2015.3,1959.1z M2366.1,858.9
		l-434.2-405.3c-71.2-66.5-185.4,0-162.7,94.7l61.7,258.2c7.5,31.2,29.7,56.8,59.5,68.6l372.5,147.1
		C2363.8,1062.1,2445.4,933,2366.1,858.9z"/>
</g>
<g id="Layer_4" class="st0">
	<g id="XMLID_20_" class="st1">
		<path id="XMLID_24_" class="st2" d="M2512,1011l-159-148.5c-26.1-24.4-67.9,0-59.6,34.7l22.6,94.6c2.7,11.4,10.9,20.8,21.8,25.1
			l136.4,53.9C2511.2,1085.4,2541.1,1038.1,2512,1011z"/>
		<path id="XMLID_27_" class="st2" d="M2381.4,1405.8c-0.1-0.3-0.1-0.6-0.2-0.8c-0.2-1.3-0.5-2.6-0.8-3.9l-147.6-617.8
			c-7.5-31.3-38.9-50.6-70.2-43.1l0,0c-31.3,7.5-50.6,38.9-43.1,70.2l98.7,413c1.6,6.8-4.6,12.9-11.4,11.2
			c-37.1-9.5-76.9-10.3-116.7-0.8c-145.5,34.8-229,193.4-165.3,337.4c36.7,83,141.9,147.6,232.6,142.8
			c157.2-8.3,260.9-154.5,226.2-300C2382.8,1411.2,2382.1,1408.5,2381.4,1405.8z M2299.9,1546.2c-45.2,58.8-130.9,126.1-263,56.9
			c-9.5-5-4.3-19.5,6.2-17.3c61.5,12.4,157.8,15.5,243.7-52.5C2295.3,1526.4,2306.6,1537.4,2299.9,1546.2z"/>
	</g>
</g>
<g id="Layer_6" class="st0">
	<g id="XMLID_8_" class="st1">
		<path id="XMLID_13_" class="st2" d="M588.3,1112v594.3H472.7v-310.8l-85.6,310.8H258.3l-85.2-309.8v309.8H57.6V1112h157.2
			l107.9,392.7L431,1112H588.3z"/>
		<path id="XMLID_17_" class="st2" d="M1205.1,1458.8v21.5c0,105.1-70.8,197.8-172.2,225.4c-19.9,5.4-40.5,8.2-61.3,8.2
			c-20.7,0-41.3-2.8-61.3-8.2C809,1678,738.2,1585.3,738.2,1480.2v-21.5c0-128.8,104.7-233.6,233.4-233.6
			C1100.4,1225.2,1205.2,1330,1205.1,1458.8z M1089.6,1458.8c0-65.1-52.9-118-118-118c-65,0-117.8,52.9-117.8,118v21.5
			c0,65.1,52.8,118,117.8,118c65.1,0,118-53,118-118V1458.8z"/>
		<path id="XMLID_21_" class="st2" d="M1799.9,1458.8v21.5c0,105.1-70.8,197.8-172.2,225.4c-19.9,5.4-40.5,8.2-61.3,8.2
			c-20.7,0-41.3-2.8-61.3-8.2c-101.3-27.6-172.1-120.3-172.1-225.4v-21.5c0-128.8,104.7-233.6,233.4-233.6
			C1695.2,1225.2,1800,1330,1799.9,1458.8z M1684.4,1458.8c0-65.1-52.9-118-118-118c-65,0-117.8,52.9-117.8,118v21.5
			c0,65.1,52.8,118,117.8,118c65.1,0,118-53,118-118V1458.8z"/>
		<path id="XMLID_31_" class="st2" d="M2914.5,1226v447.6c0,118.3-96.2,214.5-214.5,214.5c-31.9,0-62.7-6.9-91.4-20.4l-14.9-7.1
			l49.3-104.5l14.9,7.1c13.2,6.2,27.4,9.4,42.1,9.4c49.4,0,90.4-36.4,97.8-83.7c-30.2,15.7-63.5,23.9-97.9,23.9h-3.2
			c-98.4,0-178.5-80.1-178.5-178.5V1226h115.5v308.2c0,34.7,28.2,62.9,62.9,62.9h3.2c54.6,0,99.1-44.5,99.1-99.1v-272H2914.5z"/>
	</g>
</g>
</svg>
