<?xml version="1.0" encoding="utf-8"?>
<!-- Generator: Adobe Illustrator 19.0.0, SVG Export Plug-In . SVG Version: 6.00 Build 0)  -->
<svg version="1.1" xmlns="http://www.w3.org/2000/svg" xmlns:xlink="http://www.w3.org/1999/xlink" x="0px" y="0px"
	 viewBox="0 0 2856.9 1149.4" style="enable-background:new 0 0 2856.9 1149.4;" xml:space="preserve">
<style type="text/css">
	.st0{display:none;}
	.st1{display:inline;}
	.st2{fill:#19C6F4;}
	.st3{display:inline;fill:url(#XMLID_99_);}
	.st4{fill:url(#XMLID_100_);}
</style>
<g id="Layer_2" class="st0">
	<g id="XMLID_2_" class="st1">
		<path id="XMLID_9_" class="st2" d="M1691.8,1545.7c-234.1,185.6-497,177.2-664.6,143.2c-28.7-5.8-42.9,33.7-16.9,47.3
			c360.5,188.8,594.3,5.2,717.5-155.2C1746.1,1557.2,1715.3,1527.1,1691.8,1545.7z"/>
		<path id="XMLID_15_" class="st2" d="M1441.6-723.8C621.3-723.8-43.6-58.9-43.6,761.3s664.9,1485.2,1485.2,1485.2
			s1485.2-664.9,1485.2-1485.2S2261.8-723.8,1441.6-723.8z M1338.9,2038.8c-247.3,13-534.2-163.1-634.3-389.7
			c-173.6-392.6,54.1-825.4,451-920.2c108.6-25.9,217.3-23.6,318.4,2.3c18.6,4.7,35.5-11.8,31.1-30.5L1235.9-425.9
			c-20.4-85.3,32.2-171,117.6-191.4l0,0c85.3-20.4,171,32.2,191.4,117.6l402.6,1685.1c0.8,3.5,1.5,7,2.1,10.5
			c0.1,0.8,0.3,1.5,0.5,2.3c2,7.4,4,14.8,5.7,22.3C2050.7,1617.3,1767.6,2016.1,1338.9,2038.8z M2203.2,284.4l-372.2-147
			c-29.8-11.8-52-37.4-59.5-68.5l-61.6-258c-22.6-94.7,91.4-161.1,162.6-94.6l433.8,405C2385.7,195.3,2304.1,324.3,2203.2,284.4z"/>
	</g>
</g>
<g id="Layer_3" class="st0">
	<linearGradient id="XMLID_99_" gradientUnits="userSpaceOnUse" x1="1442.9031" y1="-725.6003" x2="1442.9031" y2="2247.3997">
		<stop  offset="0" style="stop-color:#19C6F4"/>
		<stop  offset="1" style="stop-color:#1977F4"/>
	</linearGradient>
	<path id="XMLID_1_" class="st3" d="M1729.4,1581.3c-123.3,160.5-357.3,344.4-718.1,155.4c-26-13.6-11.8-53.2,16.9-47.4
		c167.8,34,430.9,42.4,665.2-143.4C1716.9,1527.3,1747.7,1557.5,1729.4,1581.3z M2929.4,760.9c0,821-665.5,1486.5-1486.5,1486.5
		S-43.6,1581.9-43.6,760.9S621.9-725.6,1442.9-725.6S2929.4-60.1,2929.4,760.9z M1957.7,1220.4c-1.8-7.5-3.7-15-5.8-22.4
		c-0.2-0.7-0.4-1.5-0.5-2.3c-0.6-3.5-1.3-7-2.1-10.5l-403-1686.6c-20.4-85.4-106.2-138.1-191.5-117.7l0,0
		c-85.4,20.4-138.1,106.2-117.7,191.5l269.4,1127.6c4.5,18.7-12.5,35.2-31.1,30.5c-101.2-25.9-210-28.2-318.7-2.3
		c-397.2,94.9-625.2,528.1-451.4,921.1c100.3,226.7,387.4,403.1,634.9,390C1769.2,2016.8,2052.6,1617.7,1957.7,1220.4z
		 M2308.5,120.2l-434.2-405.3c-71.2-66.5-185.4,0-162.7,94.7l61.7,258.2c7.5,31.2,29.7,56.8,59.5,68.6l372.5,147.1
		C2306.2,323.5,2387.8,194.3,2308.5,120.2z"/>
</g>
<g id="Layer_4" class="st0">
	<g id="XMLID_20_" class="st1">
		<path id="XMLID_24_" class="st2" d="M2454.4,272.4l-159-148.5c-26.1-24.4-67.9,0-59.6,34.7l22.6,94.6
			c2.7,11.4,10.9,20.8,21.8,25.1l136.4,53.9C2453.6,346.8,2483.5,299.5,2454.4,272.4z"/>
		<path id="XMLID_27_" class="st2" d="M2323.8,667.1c-0.1-0.3-0.1-0.6-0.2-0.8c-0.2-1.3-0.5-2.6-0.8-3.9L2175.2,44.7
			c-7.5-31.3-38.9-50.6-70.2-43.1l0,0c-31.3,7.5-50.6,38.9-43.1,70.2l98.7,413c1.6,6.8-4.6,12.9-11.4,11.2
			c-37.1-9.5-76.9-10.3-116.7-0.8c-145.5,34.8-229,193.4-165.3,337.4c36.7,83,141.9,147.6,232.6,142.8
			c157.2-8.3,260.9-154.5,226.2-300C2325.2,672.6,2324.5,669.8,2323.8,667.1z M2242.3,807.5c-45.2,58.8-130.9,126.1-263,56.9
			c-9.5-5-4.3-19.5,6.2-17.3c61.5,12.4,157.8,15.5,243.7-52.5C2237.7,787.7,2249,798.8,2242.3,807.5z"/>
	</g>
</g>
<g id="Layer_6" class="st0">
	<g id="XMLID_8_" class="st1">
		<path id="XMLID_13_" d="M530.7,373.3v594.3H415.1V656.8l-85.6,310.8H200.7l-85.2-309.8v309.8H0V373.3h157.2L265.1,766l108.3-392.7
			H530.7z"/>
		<path id="XMLID_17_" d="M1147.5,720.1v21.5c0,105.1-70.8,197.8-172.2,225.4c-19.9,5.4-40.5,8.2-61.3,8.2
			c-20.7,0-41.3-2.8-61.3-8.2c-101.3-27.6-172.1-120.3-172.1-225.4v-21.5c0-128.8,104.7-233.6,233.4-233.6
			C1042.8,486.5,1147.6,591.3,1147.5,720.1z M1032,720.1c0-65.1-52.9-118-118-118c-65,0-117.8,52.9-117.8,118v21.5
			c0,65.1,52.8,118,117.8,118c65.1,0,118-53,118-118V720.1z"/>
		<path id="XMLID_21_" d="M1742.3,720.1v21.5c0,105.1-70.8,197.8-172.2,225.4c-19.9,5.4-40.5,8.2-61.3,8.2
			c-20.7,0-41.3-2.8-61.3-8.2c-101.3-27.6-172.1-120.3-172.1-225.4v-21.5c0-128.8,104.7-233.6,233.4-233.6
			C1637.6,486.5,1742.4,591.3,1742.3,720.1z M1626.8,720.1c0-65.1-52.9-118-118-118c-65,0-117.8,52.9-117.8,118v21.5
			c0,65.1,52.8,118,117.8,118c65.1,0,118-53,118-118V720.1z"/>
		<path id="XMLID_31_" d="M2856.9,487.3v447.6c0,118.3-96.2,214.5-214.5,214.5c-31.9,0-62.7-6.9-91.4-20.4l-14.9-7.1l49.3-104.5
			l14.9,7.1c13.2,6.2,27.4,9.4,42.1,9.4c49.4,0,90.4-36.4,97.8-83.7c-30.2,15.7-63.5,23.9-97.9,23.9h-3.2
			c-98.4,0-178.5-80.1-178.5-178.5V487.3h115.5v308.2c0,34.7,28.2,62.9,62.9,62.9h3.2c54.6,0,99.1-44.5,99.1-99.1v-272H2856.9z"/>
	</g>
</g>
<g id="Layer_5">
	<linearGradient id="XMLID_100_" gradientUnits="userSpaceOnUse" x1="1428.4031" y1="3.099103e-008" x2="1428.4031" y2="1149.3896">
		<stop  offset="0" style="stop-color:#19C6F4"/>
		<stop  offset="1" style="stop-color:#1977F4"/>
	</linearGradient>
	<path id="XMLID_97_" class="st4" d="M2416.6,332.2l-136.4-53.9c-10.9-4.3-19.1-13.7-21.8-25.1l-22.6-94.6
		c-8.3-34.7,33.5-59,59.6-34.7l159,148.5C2483.5,299.5,2453.6,346.8,2416.6,332.2z M2325.9,675.3c34.8,145.5-69,291.7-226.2,300
		c-90.7,4.8-195.8-59.8-232.6-142.8c-63.7-143.9,19.8-302.6,165.3-337.4c39.8-9.5,79.7-8.7,116.7,0.8c6.8,1.7,13-4.3,11.4-11.2
		l-98.7-413c-7.5-31.3,11.8-62.7,43.1-70.2l0,0c31.3-7.5,62.7,11.8,70.2,43.1l147.6,617.8c0.3,1.3,0.6,2.6,0.8,3.9
		c0,0.3,0.1,0.6,0.2,0.8C2324.5,669.8,2325.2,672.6,2325.9,675.3z M2229.1,794.6c-85.8,68-182.2,65-243.7,52.5
		c-10.5-2.1-15.7,12.4-6.2,17.3c132.2,69.2,217.9,1.9,263-56.9C2249,798.8,2237.7,787.7,2229.1,794.6z M373.4,373.3L265.1,766.1
		L157.2,373.3H0.4v594h115V657.7l85.3,309.6h128.8l85.9-310.6v310.6h115v-594H373.4z M913.8,486.5c-128.7,0-233.4,104.8-233.4,233.6
		v21.5c0,105.1,70.9,197.8,172.2,225.4c19.9,5.4,40.6,8.2,61.3,8.2c20.8,0,41.4-2.8,61.3-8.2c101.4-27.7,172.2-120.3,172.2-225.4
		v-21.5C1147.4,591.3,1042.6,486.5,913.8,486.5z M1032.4,741.6c0,65.1-53,118-118.1,118c-65,0-117.9-53-117.9-118v-21.5
		c0-65.1,52.9-118,117.9-118c65.1,0,118.1,52.9,118.1,118V741.6z M1508.8,486.5c-128.7,0-233.4,104.8-233.4,233.6v21.5
		c0,105.1,70.8,197.8,172.1,225.4c19.9,5.4,40.5,8.2,61.3,8.2c20.8,0,41.5-2.8,61.4-8.2c101.4-27.7,172.3-120.3,172.3-225.4v-21.5
		C1742.4,591.3,1637.6,486.5,1508.8,486.5z M1626.4,741.6c0,65.1-52.5,118-117.6,118c-65,0-117.4-53-117.4-118v-21.5
		c0-65.1,52.4-118,117.4-118c65.1,0,117.6,52.9,117.6,118V741.6z M2741.4,487.3v272c0,54.6-44.5,99-99.2,99h-3.2
		c-34.7,0-62.6-28.1-62.6-62.8V487.3h-116v308.2c0,98.4,80.3,178.8,178.6,178.8h3.2c34.4,0,67.7-8.4,97.9-24
		c-7.3,47.3-48.3,83.6-97.8,83.6c-14.7,0-28.9-3.2-42.1-9.4l-14.9-7.1l-49.3,104.5l14.9,7c28.7,13.6,59.2,20.4,91.2,20.4
		c118.3,0,214.3-96.2,214.3-214.5V487.3H2741.4z"/>
</g>
</svg>
