<?xml version="1.0" encoding="utf-8"?>
<!-- Generator: Adobe Illustrator 19.0.0, SVG Export Plug-In . SVG Version: 6.00 Build 0)  -->
<svg version="1.1" xmlns="http://www.w3.org/2000/svg" xmlns:xlink="http://www.w3.org/1999/xlink" x="0px" y="0px"
	 viewBox="0 0 3000 3000" style="enable-background:new 0 0 3000 3000;" xml:space="preserve">
<style type="text/css">
	.st0{display:none;}
	.st1{display:inline;fill:#19C6F4;}
	.st2{fill:#19C6F4;}
	.st3{display:inline;}
	.st4{fill:url(#XMLID_23_);}
	.st5{fill:url(#XMLID_24_);}
</style>
<g id="Layer_1" class="st0">
	<circle id="XMLID_1_" class="st1" cx="1460.1" cy="1517.9" r="870.1"/>
</g>
<g id="Layer_2">
	<g id="XMLID_2_">
		<path id="XMLID_5_" class="st2" d="M2320.1,1219.9l140.5,55.5c35.8,14.2,64.8-31.7,36.6-57.9l-196-183c-15.8-14.8-41.2,0-36.1,21
			l33.3,139.4C2301.1,1206.2,2309.2,1215.6,2320.1,1219.9z"/>
		<path id="XMLID_8_" class="st2" d="M2365.6,1615c-0.7-2.7-1.3-5.4-2.1-8.1c-0.1-0.3-0.1-0.6-0.2-0.9c-0.2-1.3-0.5-2.5-0.8-3.8
			l-146.9-614.9c-7.4-31.1-38.7-50.3-69.8-42.9l0,0c-31.1,7.4-50.3,38.7-42.9,69.8l96.5,403.8c2.4,9.9-6.5,19-16.5,16.8
			c-34.9-7.9-72.2-8.1-109.3,0.8c-144.8,34.6-227.9,192.5-164.6,335.8c36.6,82.7,141.2,146.9,231.5,142.2
			C2296.9,1905.4,2400.2,1759.9,2365.6,1615z M2032.4,1787.1c60,11.2,150.1,12.2,231.6-49.3c9.5-7.2,21.5,5.1,14,14.4
			c-45.3,56.2-127.6,116.1-252,53.9C2015.6,1800.8,2020.9,1785,2032.4,1787.1z"/>
	</g>
	<g id="XMLID_6_">
		<path id="XMLID_9_" class="st2" d="M609.6,1162.8V1694H506.3v-277.8L429.7,1694H314.6l-76.1-277v277H135.2v-531.2h140.5l96.5,351
			l96.8-351H609.6z"/>
		<path id="XMLID_17_" class="st2" d="M1219.4,1472.8v19.2c0,93.9-63.3,176.8-154,201.5c-17.8,4.8-36.2,7.3-54.8,7.3
			s-37-2.5-54.8-7.3C865.3,1668.8,802,1585.9,802,1492v-19.2c0-115.1,93.6-208.8,208.6-208.8
			C1125.8,1264,1219.4,1357.7,1219.4,1472.8z M1116.1,1472.8c0-58.2-47.3-105.5-105.5-105.5c-58.1,0-105.4,47.3-105.4,105.5v19.2
			c0,58.2,47.3,105.5,105.4,105.5c58.2,0,105.5-47.3,105.5-105.5V1472.8z"/>
		<path id="XMLID_20_" class="st2" d="M1809.6,1472.8v19.2c0,93.9-63.3,176.8-154,201.5c-17.8,4.8-36.2,7.3-54.8,7.3
			s-37-2.5-54.8-7.3c-90.6-24.7-153.8-107.5-153.8-201.5v-19.2c0-115.1,93.6-208.8,208.6-208.8
			C1715.9,1264,1809.6,1357.7,1809.6,1472.8z M1706.3,1472.8c0-58.2-47.3-105.5-105.5-105.5c-58.1,0-105.4,47.3-105.4,105.5v19.2
			c0,58.2,47.3,105.5,105.4,105.5c58.2,0,105.5-47.3,105.5-105.5V1472.8z"/>
		<path id="XMLID_26_" class="st2" d="M2922.8,1264.7v400.1c0,105.7-86,191.7-191.7,191.7c-28.6,0-56.1-6.1-81.7-18.3l-13.4-6.3
			l44.1-93.4l13.4,6.3c11.8,5.5,24.5,8.4,37.7,8.4c44.1,0,80.8-32.5,87.4-74.8c-27,14-56.8,21.3-87.6,21.3h-2.8
			c-88,0-159.6-71.6-159.6-159.6v-275.5h103.3v275.5c0,31,25.2,56.2,56.2,56.2h2.8c48.8,0,88.6-39.7,88.6-88.6v-243.2H2922.8z"/>
	</g>
</g>
<g id="Layer_5" class="st0">
	<g id="XMLID_11_" class="st3">
		<linearGradient id="XMLID_23_" gradientUnits="userSpaceOnUse" x1="1510.0577" y1="1940.1938" x2="1510.0577" y2="2093.3125">
			<stop  offset="0" style="stop-color:#19C5F5"/>
			<stop  offset="1" style="stop-color:#197DF5"/>
		</linearGradient>
		<path id="XMLID_12_" class="st4" d="M1689.7,1943.6c-128.8,97.3-271.2,95.6-366.1,78c-18.2-3.4-26.7,21.7-10.1,30
			c196.6,98.3,326.7,3.7,398.3-85.3C1723.6,1951.6,1704.7,1932.2,1689.7,1943.6z"/>
		<linearGradient id="XMLID_24_" gradientUnits="userSpaceOnUse" x1="1530.1318" y1="584.7363" x2="1530.1318" y2="2325">
			<stop  offset="0" style="stop-color:#19C5F5"/>
			<stop  offset="1" style="stop-color:#197DF5"/>
		</linearGradient>
		<path id="XMLID_15_" class="st5" d="M1530.1,584.7c-480.6,0-870.1,389.6-870.1,870.1s389.6,870.1,870.1,870.1
			s870.1-389.6,870.1-870.1S2010.7,584.7,1530.1,584.7z M1494.4,2221.6c-142.7,7.5-308.1-94.1-365.9-224.7
			c-100.2-226.5,31.2-476.1,260.1-530.8c58.8-14,117.6-13.7,172.8-1.3c15.8,3.5,29.8-10.8,26-26.5L1435,800
			c-11.8-49.2,18.6-98.6,67.8-110.4l0,0c49.2-11.8,98.6,18.6,110.4,67.8l232.2,971.9c0.5,2,0.9,4,1.2,6c0.1,0.5,0.2,1,0.3,1.4
			c1.2,4.2,2.3,8.5,3.3,12.8C1904.9,1978.5,1741.7,2208.6,1494.4,2221.6z M2000.4,1212.7l-222.1-87.7c-17.2-6.8-30-21.5-34.3-39.5
			l-52.6-220.3c-7.9-33.3,32.1-56.6,57.1-33.3l309.8,289.2C2102.8,1162.6,2057,1235.1,2000.4,1212.7z"/>
	</g>
</g>
<g id="Layer_4" class="st0">
</g>
</svg>
